<svg width="526" height="682" viewBox="0 0 526 682" fill="none" xmlns="http://www.w3.org/2000/svg">
<path d="M239.668 299.406C244.924 299.406 249.184 295.146 249.184 289.891C249.184 284.635 244.924 280.375 239.668 280.375C234.413 280.375 230.153 284.635 230.153 289.891C230.153 295.146 234.413 299.406 239.668 299.406Z" fill="#4C00F8"/>
<path d="M284.018 299.406C289.273 299.406 293.533 295.146 293.533 289.891C293.533 284.635 289.273 280.375 284.018 280.375C278.763 280.375 274.502 284.635 274.502 289.891C274.502 295.146 278.763 299.406 284.018 299.406Z" fill="#4D00F4"/>
<path d="M314.67 306.042C319.925 306.042 324.185 301.782 324.185 296.527C324.185 291.272 319.925 287.012 314.67 287.012C309.415 287.012 305.155 291.272 305.155 296.527C305.155 301.782 309.415 306.042 314.67 306.042Z" fill="#4F00F2"/>
<path d="M339.488 331.71C344.744 331.71 349.004 327.449 349.004 322.194C349.004 316.939 344.744 312.679 339.488 312.679C334.233 312.679 329.973 316.939 329.973 322.194C329.973 327.449 334.233 331.71 339.488 331.71Z" fill="#5F00F5"/>
<path d="M351.746 363.089C357.001 363.089 361.262 358.829 361.262 353.574C361.262 348.319 357.001 344.058 351.746 344.058C346.491 344.058 342.231 348.319 342.231 353.574C342.231 358.829 346.491 363.089 351.746 363.089Z" fill="#7C00F8"/>
<path d="M363.156 391.029C368.411 391.029 372.671 386.769 372.671 381.513C372.671 376.258 368.411 371.998 363.156 371.998C357.901 371.998 353.64 376.258 353.64 381.513C353.64 386.769 357.901 391.029 363.156 391.029Z" fill="#9700F9"/>
<path d="M361.277 423.833C366.532 423.833 370.792 419.573 370.792 414.317C370.792 409.062 366.532 404.802 361.277 404.802C356.022 404.802 351.761 409.062 351.761 414.317C351.761 419.573 356.022 423.833 361.277 423.833Z" fill="#9A00F1"/>
<path d="M348.216 452.212C353.471 452.212 357.731 447.952 357.731 442.696C357.731 437.441 353.471 433.181 348.216 433.181C342.961 433.181 338.701 437.441 338.701 442.696C338.701 447.952 342.961 452.212 348.216 452.212Z" fill="#A400FB"/>
<path d="M317.352 454.803C321.167 454.803 324.261 451.709 324.261 447.894C324.261 444.078 321.167 440.984 317.352 440.984C313.536 440.984 310.442 444.078 310.442 447.894C310.442 451.709 313.536 454.803 317.352 454.803Z" fill="#AE00FE"/>
<path d="M289.26 460.803C293.076 460.803 296.169 457.71 296.169 453.894C296.169 450.078 293.076 446.985 289.26 446.985C285.444 446.985 282.351 450.078 282.351 453.894C282.351 457.71 285.444 460.803 289.26 460.803Z" fill="#B000FF"/>
<path d="M233.638 460.803C237.454 460.803 240.547 457.71 240.547 453.894C240.547 450.078 237.454 446.985 233.638 446.985C229.822 446.985 226.729 450.078 226.729 453.894C226.729 457.71 229.822 460.803 233.638 460.803Z" fill="#8100F3"/>
<path d="M204.834 454.803C208.65 454.803 211.744 451.709 211.744 447.894C211.744 444.078 208.65 440.984 204.834 440.984C201.019 440.984 197.925 444.078 197.925 447.894C197.925 451.709 201.019 454.803 204.834 454.803Z" fill="#6300F8"/>
<path d="M214.35 345.543C218.166 345.543 221.259 342.45 221.259 338.634C221.259 334.818 218.166 331.725 214.35 331.725C210.534 331.725 207.441 334.818 207.441 338.634C207.441 342.45 210.534 345.543 214.35 345.543Z" fill="#4E00F6"/>
<path d="M238.35 334.164C241.831 334.164 244.653 331.342 244.653 327.861C244.653 324.38 241.831 321.558 238.35 321.558C234.869 321.558 232.047 324.38 232.047 327.861C232.047 331.342 234.869 334.164 238.35 334.164Z" fill="#5300F8"/>
<path d="M284.018 333.104C287.499 333.104 290.321 330.282 290.321 326.8C290.321 323.319 287.499 320.497 284.018 320.497C280.537 320.497 277.714 323.319 277.714 326.8C277.714 330.282 280.537 333.104 284.018 333.104Z" fill="#5800FA"/>
<path d="M309.261 344.937C312.742 344.937 315.564 342.115 315.564 338.634C315.564 335.153 312.742 332.331 309.261 332.331C305.78 332.331 302.958 335.153 302.958 338.634C302.958 342.115 305.78 344.937 309.261 344.937Z" fill="#5D00F5"/>
<path d="M209.501 306.042C214.756 306.042 219.017 301.782 219.017 296.527C219.017 291.272 214.756 287.012 209.501 287.012C204.246 287.012 199.986 291.272 199.986 296.527C199.986 301.782 204.246 306.042 209.501 306.042Z" fill="#4800F4"/>
<path d="M183.198 332.134C188.453 332.134 192.713 327.874 192.713 322.619C192.713 317.363 188.453 313.103 183.198 313.103C177.942 313.103 173.682 317.363 173.682 322.619C173.682 327.874 177.942 332.134 183.198 332.134Z" fill="#4E00F7"/>
<path d="M172.288 363.15C177.543 363.15 181.804 358.889 181.804 353.634C181.804 348.379 177.543 344.119 172.288 344.119C167.033 344.119 162.773 348.379 162.773 353.634C162.773 358.889 167.033 363.15 172.288 363.15Z" fill="#4E00F5"/>
<path d="M160.515 391.181C165.771 391.181 170.031 386.92 170.031 381.665C170.031 376.41 165.771 372.15 160.515 372.15C155.26 372.15 151 376.41 151 381.665C151 386.92 155.26 391.181 160.515 391.181Z" fill="#5100F7"/>
<path d="M161.803 423.908C167.058 423.908 171.319 419.648 171.319 414.393C171.319 409.138 167.058 404.878 161.803 404.878C156.548 404.878 152.288 409.138 152.288 414.393C152.288 419.648 156.548 423.908 161.803 423.908Z" fill="#5500F6"/>
<path d="M175.485 451.924C180.74 451.924 185.001 447.664 185.001 442.409C185.001 437.154 180.74 432.894 175.485 432.894C170.23 432.894 165.97 437.154 165.97 442.409C165.97 447.664 170.23 451.924 175.485 451.924Z" fill="#5B00F6"/>
<path d="M207.441 491.288C212.696 491.288 216.956 487.028 216.956 481.773C216.956 476.518 212.696 472.258 207.441 472.258C202.185 472.258 197.925 476.518 197.925 481.773C197.925 487.028 202.185 491.288 207.441 491.288Z" fill="#7B00F5"/>
<path d="M239.244 502.258C244.499 502.258 248.76 497.998 248.76 492.743C248.76 487.488 244.499 483.228 239.244 483.228C233.989 483.228 229.729 487.488 229.729 492.743C229.729 497.998 233.989 502.258 239.244 502.258Z" fill="#A200FF"/>
<path d="M284.018 502.258C289.273 502.258 293.533 497.998 293.533 492.743C293.533 487.488 289.273 483.228 284.018 483.228C278.763 483.228 274.502 487.488 274.502 492.743C274.502 497.998 278.763 502.258 284.018 502.258Z" fill="#A900FA"/>
<path d="M315.534 491.288C320.789 491.288 325.049 487.028 325.049 481.773C325.049 476.518 320.789 472.258 315.534 472.258C310.278 472.258 306.018 476.518 306.018 481.773C306.018 487.028 310.278 491.288 315.534 491.288Z" fill="#AA00F9"/>
<path d="M298.622 372.286C298.622 365.183 292.863 359.425 285.76 359.425H239.199C232.096 359.425 226.338 365.183 226.338 372.286V418.848C226.338 425.951 232.096 431.709 239.199 431.709H285.76C292.863 431.709 298.622 425.951 298.622 418.848V372.286ZM300.991 418.848C300.991 427.259 294.172 434.078 285.76 434.078H239.199C230.787 434.078 223.968 427.259 223.968 418.848V372.286C223.968 363.875 230.787 357.056 239.199 357.056H285.76C294.172 357.056 300.991 363.875 300.991 372.286V418.848Z" fill="url(#paint0_linear_34010_492)"/>
<path d="M252.244 307.926L252.484 308.239L253.126 358.225L250.757 358.256L250.125 309.057L241.806 298.25L243.683 296.804L252.244 307.926Z" fill="#4C00F8"/>
<path d="M280.239 298.275L271.96 308.433V358.24H269.591V307.591L278.402 296.779L280.239 298.275Z" fill="#4A00D9"/>
<path d="M308.721 303.999L289.812 323.682L288.103 322.04L307.012 302.358L308.721 303.999Z" fill="#4F00F2"/>
<path d="M236.1 322.027L234.418 323.696L213.509 302.635L215.191 300.965L236.1 322.027Z" fill="#4800F4"/>
<path d="M200.503 338.692H214.874L233.423 359.11L231.67 360.704L213.827 341.061H199.468L187.98 328.667L189.718 327.055L200.503 338.692Z" fill="#4E00F7"/>
<path d="M194.037 357.056L207.936 370.954L225.163 371.102L225.143 373.471L206.946 373.316L206.603 372.972L193.055 359.425H177.288V357.056H194.037Z" fill="#4E00F5"/>
<path d="M183.651 378.768L183.988 379.071L193.999 388.041H225.153V390.411H193.093L182.745 381.137H168.591V378.768H183.651Z" fill="#5100F7"/>
<path d="M225.153 401.86V404.229H193.293L181.224 415.267L180.885 415.578H170.031V413.208H179.965L192.374 401.86H225.153Z" fill="#5500F6"/>
<path d="M225.214 418.981V421.351H198.06L181.81 436.576L180.191 434.848L197.124 418.981H225.214Z" fill="#5B00F6"/>
<path d="M227.536 428.018L209.763 444.564L208.148 442.83L225.922 426.284L227.536 428.018Z" fill="#6300F8"/>
<path d="M230.556 458.923L213.647 476.045L211.961 474.38L228.871 457.259L230.556 458.923Z" fill="#7B00F5"/>
<path d="M253.338 432.894V477.653L244.929 487.396L243.136 485.848L250.969 476.771V432.894H253.338Z" fill="#A200FF"/>
<path d="M272.02 432.894V477.375L281.026 485.006L280.26 485.91L279.494 486.813L269.651 478.474V432.894H272.02Z" fill="#A900FA"/>
<path d="M335.52 328.717L322.767 340.925H309.762L292.125 359.066L290.426 357.415L308.411 338.915L308.76 338.555H321.816L333.881 327.006L335.52 328.717Z" fill="#5F00F5"/>
<path d="M345.928 356.404V358.773H329.859L315.296 373.988L314.767 373.97L299.767 373.47L299.845 371.103L314.316 371.584L328.846 356.404H345.928Z" fill="#7C00F8"/>
<path d="M356.019 379.299V381.668H339.96L330.908 390.223L330.566 390.547H299.806V388.177H329.622L339.017 379.299H356.019Z" fill="#9700F9"/>
<path d="M332.105 401.693L343.879 413.133H353.64V415.502H342.917L331.144 404.062H300.291V401.693H332.105Z" fill="#9A00F1"/>
<path d="M327.514 417.663L343.96 436.648L342.169 438.199L326.432 420.032H299.806V417.663H327.514Z" fill="#A400FB"/>
<path d="M313.953 443.305L312.296 444.998L295.931 428.982L297.589 427.289L313.953 443.305Z" fill="#AE00FE"/>
<path d="M310.681 474.595L309.806 475.394L308.932 476.194L292.993 458.753L294.741 457.156L310.681 474.595Z" fill="#AA00F9"/>
<path d="M283.299 412.484H276.641V380.496H283.299V412.484Z" fill="white"/>
<path d="M261.651 400.337L258.19 390.549C257.984 390.034 257.764 389.432 257.529 388.741C257.308 388.05 257.095 387.301 256.89 386.493C256.684 387.316 256.463 388.08 256.228 388.785C256.008 389.476 255.795 390.079 255.589 390.593L252.15 400.337H261.651ZM272.762 412.484H267.625C267.052 412.484 266.582 412.351 266.215 412.087C265.862 411.808 265.597 411.455 265.421 411.029L263.261 404.922H250.518L248.358 411.029C248.211 411.396 247.954 411.734 247.587 412.043C247.219 412.337 246.756 412.484 246.198 412.484H241.017L253.517 380.496H260.284L272.762 412.484Z" fill="white"/>
<path d="M193 7.89788C193 3.53599 196.536 0 200.898 0H323.315C327.677 0 331.213 3.53601 331.213 7.89789V130.315C331.213 134.677 327.677 138.213 323.315 138.213H200.898C196.536 138.213 193 134.677 193 130.315V7.89788Z" fill="url(#paint1_linear_34010_492)"/>
<path d="M323.315 135.844V138.213H200.897V135.844H323.315ZM328.844 130.315V7.89746C328.844 4.84439 326.369 2.36923 323.315 2.36914H200.897C197.844 2.36937 195.369 4.84448 195.369 7.89746V130.315C195.369 133.369 197.844 135.844 200.897 135.844V138.213C196.672 138.213 193.222 134.895 193.011 130.722L193 130.315V7.89746C193 3.53591 196.536 0.000234206 200.897 0H323.315L323.722 0.0107422C327.895 0.222268 331.213 3.67208 331.213 7.89746V130.315L331.203 130.722C330.998 134.76 327.76 137.998 323.722 138.203L323.315 138.213V135.844C326.369 135.844 328.844 133.369 328.844 130.315Z" fill="#004CAD"/>
<path d="M387.787 7.89788C387.787 3.53599 391.323 0 395.685 0H518.102C522.464 0 526 3.53601 526 7.89789V130.315C526 134.677 522.464 138.213 518.102 138.213H395.685C391.323 138.213 387.787 134.677 387.787 130.315V7.89788Z" fill="url(#paint2_linear_34010_492)"/>
<path d="M518.102 135.844V138.213H395.684V135.844H518.102ZM523.631 130.315V7.89746C523.63 4.84439 521.155 2.36923 518.102 2.36914H395.684C392.631 2.36937 390.156 4.84448 390.156 7.89746V130.315C390.156 133.369 392.631 135.844 395.684 135.844V138.213C391.459 138.213 388.009 134.895 387.798 130.722L387.787 130.315V7.89746C387.787 3.53591 391.323 0.000234206 395.684 0H518.102L518.509 0.0107422C522.681 0.222268 526 3.67208 526 7.89746V130.315L525.99 130.722C525.785 134.76 522.547 137.998 518.509 138.203L518.102 138.213V135.844C521.155 135.844 523.631 133.369 523.631 130.315Z" fill="#E27C45"/>
<path d="M0 7.89788C0 3.53599 3.53601 0 7.89789 0H130.315C134.677 0 138.213 3.53601 138.213 7.89789V130.315C138.213 134.677 134.677 138.213 130.315 138.213H7.89788C3.53599 138.213 0 134.677 0 130.315V7.89788Z" fill="url(#paint3_linear_34010_492)"/>
<path d="M130.315 135.844V138.213H7.89746V135.844H130.315ZM135.844 130.315V7.89746C135.844 4.84439 133.369 2.36923 130.315 2.36914H7.89746C4.84447 2.36937 2.36937 4.84448 2.36914 7.89746V130.315C2.36923 133.369 4.8444 135.844 7.89746 135.844V138.213C3.67208 138.213 0.222276 134.895 0.0107422 130.722L0 130.315V7.89746C0.000225028 3.53591 3.53591 0.000234206 7.89746 0H130.315L130.722 0.0107422C134.895 0.222268 138.213 3.67208 138.213 7.89746V130.315L138.203 130.722C137.998 134.76 134.76 137.998 130.722 138.203L130.315 138.213V135.844C133.369 135.844 135.844 133.369 135.844 130.315Z" fill="#00BFE3"/>
<path d="M0 606.898C0 602.536 3.53601 599 7.8979 599H130.315C134.677 599 138.213 602.536 138.213 606.898V673.24C138.213 677.602 134.677 681.138 130.315 681.138H7.89788C3.53599 681.138 0 677.602 0 673.24V606.898Z" fill="url(#paint4_linear_34010_492)"/>
<path d="M130.315 678.769V681.138H7.89746V678.769H130.315ZM135.844 673.24V606.897C135.844 603.844 133.369 601.369 130.315 601.369H7.89746C4.84448 601.369 2.36937 603.844 2.36914 606.897V673.24C2.36915 676.293 4.84434 678.768 7.89746 678.769V681.138C3.67203 681.137 0.222197 677.819 0.0107422 673.646L0 673.24V606.897C0.000232693 602.536 3.53592 599 7.89746 599H130.315L130.722 599.011C134.895 599.222 138.213 602.672 138.213 606.897V673.24L138.203 673.646C137.999 677.685 134.76 680.923 130.722 681.128L130.315 681.138V678.769C133.369 678.768 135.844 676.293 135.844 673.24Z" fill="#5900A3"/>
<path d="M193 606.898C193 602.536 196.536 599 200.898 599H323.315C327.677 599 331.213 602.536 331.213 606.898V673.24C331.213 677.602 327.677 681.138 323.315 681.138H200.898C196.536 681.138 193 677.602 193 673.24V606.898Z" fill="url(#paint5_linear_34010_492)"/>
<path d="M323.315 678.769V681.138H200.897V678.769H323.315ZM328.844 673.24V606.897C328.844 603.844 326.369 601.369 323.315 601.369H200.897C197.844 601.369 195.369 603.844 195.369 606.897V673.24C195.369 676.293 197.844 678.768 200.897 678.769V681.138C196.672 681.137 193.222 677.819 193.011 673.646L193 673.24V606.897C193 602.536 196.536 599 200.897 599H323.315L323.722 599.011C327.895 599.222 331.213 602.672 331.213 606.897V673.24L331.203 673.646C330.999 677.685 327.76 680.923 323.722 681.128L323.315 681.138V678.769C326.369 678.768 328.844 676.293 328.844 673.24Z" fill="#00BFE3"/>
<path d="M387.787 606.898C387.787 602.536 391.323 599 395.685 599H518.102C522.464 599 526 602.536 526 606.898V673.24C526 677.602 522.464 681.138 518.102 681.138H395.685C391.323 681.138 387.787 677.602 387.787 673.24V606.898Z" fill="url(#paint6_linear_34010_492)"/>
<path d="M518.102 678.769V681.138H395.684V678.769H518.102ZM523.631 673.24V606.897C523.63 603.844 521.155 601.369 518.102 601.369H395.684C392.631 601.369 390.156 603.844 390.156 606.897V673.24C390.156 676.293 392.631 678.768 395.684 678.769V681.138C391.459 681.137 388.009 677.819 387.798 673.646L387.787 673.24V606.897C387.787 602.536 391.323 599 395.684 599H518.102L518.509 599.011C522.681 599.222 526 602.672 526 606.897V673.24L525.99 673.646C525.785 677.685 522.547 680.923 518.509 681.128L518.102 681.138V678.769C521.156 678.768 523.631 676.293 523.631 673.24Z" fill="#004CAD"/>
<path d="M81.5173 71.1528V60.2173C81.5173 58.1872 81.2533 57.4451 80.9236 56.9243C80.7329 56.6233 80.4917 56.3502 80.113 55.9272C79.7458 55.517 79.292 55.0106 78.7868 54.3169C78.4025 53.7891 77.5803 52.9647 76.4031 51.9106C75.25 50.8783 73.8317 49.6907 72.32 48.4497C69.3194 45.9863 65.9312 43.2966 63.697 41.3091C61.3273 39.201 60.2151 37.1399 59.7195 35.3843C59.2321 33.6578 59.3659 32.2571 59.3659 31.7612V22.9038C59.3659 22.2496 59.8964 21.7194 60.5505 21.7192C61.2048 21.7192 61.7351 22.2495 61.7351 22.9038V31.7612C61.7351 32.451 61.6259 33.4151 61.9997 34.7397C62.3655 36.0354 63.2203 37.7132 65.2722 39.5386C67.4598 41.4846 70.7674 44.1093 73.8239 46.6187C75.3408 47.8639 76.7916 49.0773 77.9841 50.145C79.1524 51.1911 80.1517 52.1669 80.7019 52.9224C81.1311 53.5118 81.5153 53.9414 81.8777 54.3462C82.2285 54.7381 82.6105 55.1593 82.9255 55.6567C83.607 56.7331 83.8864 58.007 83.8864 60.2173V71.1528C83.8864 71.8071 83.3561 72.3383 82.7019 72.3384C82.0476 72.3384 81.5173 71.8071 81.5173 71.1528Z" fill="#00BFE3"/>
<path d="M81.517 30.1851V22.9038C81.517 22.2496 82.0474 21.7194 82.7016 21.7192C83.3559 21.7192 83.8861 22.2495 83.8861 22.9038V30.1851C83.8861 31.5951 83.3617 35.0943 79.0219 38.686C74.9583 42.049 60.9117 52.4378 60.184 52.9966C59.8146 53.2802 58.6994 54.1452 57.6693 55.4331C56.6315 56.7308 55.7637 58.3544 55.7231 60.1606C55.6746 62.3123 55.6747 65.0572 55.6869 67.271C55.693 68.3763 55.7018 69.3468 55.7094 70.0405C55.7132 70.3873 55.7167 70.6652 55.7191 70.856C55.7204 70.9513 55.7214 71.025 55.7221 71.0747C55.7224 71.0995 55.7229 71.1187 55.7231 71.1313V71.1499L55.7191 71.271C55.6673 71.8693 55.1694 72.3431 54.5561 72.3521C53.9019 72.3615 53.3635 71.8383 53.3539 71.1841V71.1646C53.3537 71.1516 53.3533 71.1321 53.3529 71.1069C53.3522 71.0565 53.3512 70.9821 53.35 70.8862C53.3475 70.694 53.3441 70.4144 53.3402 70.0659C53.3326 69.3688 53.3239 68.3942 53.3178 67.2837C53.3056 65.0654 53.3057 62.2933 53.3549 60.1069C53.4119 57.5751 54.6153 55.4597 55.8197 53.9536C57.0318 52.4381 58.3297 51.434 58.7416 51.1177C59.5767 50.4764 73.4845 40.1933 77.5111 36.8608C81.2612 33.7572 81.517 30.951 81.517 30.1851Z" fill="#00BFE3"/>
<path d="M82.7023 26.5455C83.3564 26.5458 83.8868 27.076 83.8868 27.7301C83.8868 28.3842 83.3564 28.9144 82.7023 28.9147H60.5509C59.8966 28.9147 59.3663 28.3844 59.3663 27.7301C59.3663 27.0758 59.8966 26.5455 60.5509 26.5455H82.7023Z" fill="#00BFE3"/>
<path d="M80.5393 33.2411C81.1936 33.2411 81.7249 33.7714 81.7249 34.4257C81.7249 35.0799 81.1936 35.6102 80.5393 35.6102H60.7043C60.0501 35.6102 59.5198 35.0799 59.5198 34.4257C59.5198 33.7714 60.0501 33.2411 60.7043 33.2411H80.5393Z" fill="#00BFE3"/>
<path d="M82.7021 63.2732C83.3563 63.2733 83.8867 63.8036 83.8867 64.4578C83.8867 65.112 83.3563 65.6422 82.7021 65.6423H54.4971C53.8428 65.6423 53.3125 65.112 53.3125 64.4578C53.3125 63.8035 53.8428 63.2732 54.4971 63.2732H82.7021Z" fill="#00BFE3"/>
<path d="M82.5067 56.5776C83.1609 56.5777 83.6913 57.108 83.6913 57.7622C83.6913 58.4164 83.1609 58.9467 82.5067 58.9468H54.9852C54.3309 58.9468 53.8007 58.4165 53.8007 57.7622C53.8007 57.1079 54.3309 56.5776 54.9852 56.5776H82.5067Z" fill="#00BFE3"/>
<path d="M78.9775 51.7653C79.6318 51.7653 80.1621 52.2955 80.1621 52.9498C80.1621 53.6041 79.6318 54.1344 78.9775 54.1344H58.375C57.7207 54.1344 57.1904 53.6041 57.1904 52.9498C57.1904 52.2955 57.7207 51.7653 58.375 51.7653H78.9775Z" fill="#00BFE3"/>
<path d="M73.8857 47.0226C74.54 47.0226 75.0713 47.5529 75.0713 48.2072C75.0713 48.8614 74.54 49.3917 73.8857 49.3917H64.624C63.9697 49.3917 63.4395 48.8614 63.4395 48.2072C63.4395 47.5529 63.9697 47.0226 64.624 47.0226H73.8857Z" fill="#00BFE3"/>
<path d="M85.8784 96.3568V99.5238H89.8747V101.159H85.8784V104.389H90.9489V106.087H83.746V94.6666H90.9489V96.3568H85.8784Z" fill="white"/>
<path d="M80.4129 94.6666V106.087H79.323C79.1545 106.087 79.0124 106.061 78.8965 106.008C78.786 105.95 78.678 105.855 78.5727 105.724L72.6098 98.1101C72.6414 98.4576 72.6572 98.7788 72.6572 99.0737V106.087H70.7854V94.6666H71.899C71.9885 94.6666 72.0649 94.6719 72.128 94.6824C72.1965 94.6877 72.2544 94.7035 72.3018 94.7298C72.3544 94.7509 72.4045 94.7851 72.4519 94.8325C72.4992 94.8746 72.5519 94.9325 72.6098 95.0062L78.5964 102.651C78.5806 102.467 78.5675 102.285 78.5569 102.106C78.5464 101.927 78.5411 101.762 78.5411 101.609V94.6666H80.4129Z" fill="white"/>
<path d="M63.0423 96.3568V99.5238H67.0387V101.159H63.0423V104.389H68.1128V106.087H60.9099V94.6666H68.1128V96.3568H63.0423Z" fill="white"/>
<path d="M58.0732 100.361V104.981C57.4941 105.408 56.8754 105.721 56.2172 105.921C55.5643 106.116 54.8641 106.213 54.1164 106.213C53.1844 106.213 52.3394 106.069 51.5812 105.779C50.8282 105.489 50.1832 105.087 49.6462 104.571C49.1144 104.055 48.7037 103.439 48.4141 102.723C48.1245 102.006 47.9797 101.225 47.9797 100.377C47.9797 99.5186 48.1193 98.7314 48.3983 98.0154C48.6774 97.2993 49.0723 96.6832 49.583 96.1672C50.099 95.6513 50.7229 95.2511 51.4548 94.9668C52.1867 94.6824 53.0081 94.5403 53.919 94.5403C54.3823 94.5403 54.814 94.5771 55.2142 94.6509C55.6196 94.7246 55.9935 94.8272 56.3357 94.9589C56.6832 95.0852 56.9991 95.2406 57.2835 95.4248C57.5678 95.6091 57.8284 95.8118 58.0653 96.033L57.4572 96.9965C57.3624 97.1492 57.2387 97.244 57.086 97.2809C56.9333 97.3124 56.7675 97.273 56.5884 97.1624C56.4147 97.0623 56.2409 96.9623 56.0672 96.8623C55.8934 96.7622 55.6986 96.6753 55.4827 96.6016C55.2721 96.5279 55.0326 96.4674 54.764 96.42C54.5008 96.3726 54.1954 96.3489 53.8479 96.3489C53.2845 96.3489 52.7738 96.4437 52.3157 96.6332C51.8629 96.8228 51.4759 97.0939 51.1547 97.4467C50.8335 97.7995 50.586 98.2233 50.4123 98.7183C50.2385 99.2132 50.1517 99.7661 50.1517 100.377C50.1517 101.03 50.2438 101.614 50.4281 102.13C50.6176 102.641 50.8809 103.075 51.2179 103.433C51.5601 103.786 51.9708 104.057 52.4499 104.247C52.9291 104.431 53.4635 104.523 54.0532 104.523C54.4744 104.523 54.8509 104.478 55.1826 104.389C55.5143 104.299 55.8381 104.178 56.1541 104.026V101.956H54.7166C54.5797 101.956 54.4718 101.92 54.3928 101.846C54.3191 101.767 54.2823 101.672 54.2823 101.562V100.361H58.0732Z" fill="white"/>
<path d="M118.215 646.114V657.535H117.125C116.956 657.535 116.814 657.508 116.698 657.456C116.588 657.398 116.48 657.303 116.374 657.171L110.412 649.558C110.443 649.905 110.459 650.226 110.459 650.521V657.535H108.587V646.114H109.701C109.79 646.114 109.867 646.12 109.93 646.13C109.998 646.135 110.056 646.151 110.104 646.177C110.156 646.199 110.206 646.233 110.254 646.28C110.301 646.322 110.354 646.38 110.412 646.454L116.398 654.099C116.382 653.915 116.369 653.733 116.359 653.554C116.348 653.375 116.343 653.209 116.343 653.057V646.114H118.215Z" fill="white"/>
<path d="M105.932 651.824C105.932 652.662 105.792 653.438 105.513 654.154C105.239 654.865 104.85 655.481 104.344 656.002C103.839 656.524 103.231 656.932 102.52 657.226C101.809 657.516 101.019 657.661 100.15 657.661C99.2869 657.661 98.4997 657.516 97.7889 657.226C97.0781 656.932 96.4673 656.524 95.9566 656.002C95.4511 655.481 95.0589 654.865 94.7798 654.154C94.5007 653.438 94.3612 652.662 94.3612 651.824C94.3612 650.987 94.5007 650.213 94.7798 649.502C95.0589 648.786 95.4511 648.168 95.9566 647.646C96.4673 647.125 97.0781 646.72 97.7889 646.43C98.4997 646.135 99.2869 645.988 100.15 645.988C100.73 645.988 101.275 646.056 101.785 646.193C102.296 646.325 102.765 646.514 103.191 646.762C103.618 647.004 103.999 647.301 104.336 647.654C104.678 648.002 104.968 648.391 105.205 648.823C105.442 649.255 105.621 649.723 105.742 650.229C105.868 650.734 105.932 651.266 105.932 651.824ZM103.76 651.824C103.76 651.198 103.675 650.637 103.507 650.142C103.338 649.642 103.099 649.218 102.788 648.871C102.478 648.523 102.099 648.257 101.651 648.073C101.209 647.889 100.708 647.796 100.15 647.796C99.5922 647.796 99.0894 647.889 98.6419 648.073C98.1996 648.257 97.8205 648.523 97.5046 648.871C97.1939 649.218 96.9544 649.642 96.7859 650.142C96.6174 650.637 96.5331 651.198 96.5331 651.824C96.5331 652.451 96.6174 653.014 96.7859 653.514C96.9544 654.009 97.1939 654.431 97.5046 654.778C97.8205 655.12 98.1996 655.384 98.6419 655.568C99.0894 655.752 99.5922 655.844 100.15 655.844C100.708 655.844 101.209 655.752 101.651 655.568C102.099 655.384 102.478 655.12 102.788 654.778C103.099 654.431 103.338 654.009 103.507 653.514C103.675 653.014 103.76 652.451 103.76 651.824Z" fill="white"/>
<path d="M91.6936 657.535H89.5612V646.114H91.6936V657.535Z" fill="white"/>
<path d="M87.277 647.86H83.8335V657.535H81.709V647.86H78.2655V646.114H87.277V647.86Z" fill="white"/>
<path d="M74.6874 653.222L73.2973 649.423C73.2289 649.255 73.1578 649.055 73.0841 648.823C73.0104 648.592 72.9367 648.341 72.8629 648.073C72.7945 648.341 72.7234 648.594 72.6497 648.831C72.576 649.063 72.5049 649.266 72.4365 649.439L71.0543 653.222H74.6874ZM78.4389 657.535H76.7961C76.6118 657.535 76.4617 657.49 76.3459 657.4C76.2301 657.306 76.1432 657.19 76.0853 657.053L75.2323 654.723H70.5015L69.6485 657.053C69.6064 657.174 69.5248 657.285 69.4037 657.385C69.2826 657.485 69.1325 657.535 68.9535 657.535H67.2949L71.7888 646.114H73.9528L78.4389 657.535Z" fill="white"/>
<path d="M65.2631 654.841C65.3789 654.841 65.4816 654.886 65.5711 654.976L66.4083 655.884C65.945 656.458 65.3737 656.897 64.6945 657.203C64.0205 657.508 63.2097 657.661 62.2619 657.661C61.4142 657.661 60.6507 657.516 59.9715 657.226C59.2976 656.937 58.721 656.534 58.2419 656.018C57.7627 655.502 57.3942 654.886 57.1362 654.17C56.8834 653.454 56.7571 652.672 56.7571 651.824C56.7571 650.966 56.894 650.182 57.1678 649.471C57.4416 648.755 57.8259 648.139 58.3209 647.623C58.8211 647.107 59.416 646.707 60.1058 646.422C60.7955 646.133 61.559 645.988 62.3962 645.988C63.2281 645.988 63.9652 646.125 64.6076 646.398C65.2552 646.672 65.8054 647.03 66.2582 647.473L65.5474 648.46C65.5053 648.523 65.45 648.578 65.3816 648.626C65.3184 648.673 65.2289 648.697 65.1131 648.697C65.0341 648.697 64.9525 648.676 64.8682 648.634C64.784 648.586 64.6918 648.531 64.5918 648.468C64.4918 648.399 64.3759 648.326 64.2443 648.247C64.1127 648.168 63.96 648.097 63.7862 648.033C63.6125 647.965 63.4097 647.91 63.1781 647.867C62.9517 647.82 62.6884 647.796 62.3883 647.796C61.8775 647.796 61.4089 647.889 60.9825 648.073C60.5612 648.252 60.1979 648.515 59.8925 648.863C59.5872 649.205 59.3502 649.626 59.1817 650.126C59.0132 650.621 58.929 651.187 58.929 651.824C58.929 652.467 59.0185 653.038 59.1975 653.538C59.3818 654.038 59.6293 654.46 59.9399 654.802C60.2506 655.144 60.6165 655.407 61.0377 655.592C61.459 655.771 61.9118 655.86 62.3962 655.86C62.6858 655.86 62.9464 655.844 63.1781 655.813C63.415 655.781 63.6309 655.731 63.8257 655.663C64.0258 655.594 64.2127 655.507 64.3864 655.402C64.5655 655.292 64.7418 655.157 64.9156 654.999C64.9683 654.952 65.0235 654.915 65.0815 654.889C65.1394 654.857 65.1999 654.841 65.2631 654.841Z" fill="white"/>
<path d="M54.0737 657.535H51.9413V646.114H54.0737V657.535Z" fill="white"/>
<path d="M49.2759 651.824C49.2759 652.662 49.1364 653.43 48.8573 654.131C48.5783 654.831 48.186 655.434 47.6805 655.939C47.1751 656.445 46.5669 656.837 45.8561 657.116C45.1453 657.395 44.3555 657.535 43.4868 657.535H39.135V646.114H43.4868C44.3555 646.114 45.1453 646.256 45.8561 646.541C46.5669 646.82 47.1751 647.212 47.6805 647.718C48.186 648.218 48.5783 648.818 48.8573 649.518C49.1364 650.219 49.2759 650.987 49.2759 651.824ZM47.0961 651.824C47.0961 651.198 47.0118 650.637 46.8434 650.142C46.6801 649.642 46.4406 649.221 46.1246 648.879C45.814 648.531 45.4349 648.265 44.9874 648.081C44.5451 647.897 44.0449 647.804 43.4868 647.804H41.2674V655.844H43.4868C44.0449 655.844 44.5451 655.752 44.9874 655.568C45.4349 655.384 45.814 655.12 46.1246 654.778C46.4406 654.431 46.6801 654.01 46.8434 653.515C47.0118 653.014 47.0961 652.451 47.0961 651.824Z" fill="white"/>
<path d="M35.802 646.114V657.535H34.7121C34.5436 657.535 34.4014 657.508 34.2856 657.456C34.175 657.398 34.0671 657.303 33.9618 657.171L27.9989 649.558C28.0304 649.905 28.0462 650.226 28.0462 650.521V657.535H26.1744V646.114H27.288C27.3776 646.114 27.4539 646.12 27.5171 646.13C27.5855 646.135 27.6434 646.151 27.6908 646.177C27.7435 646.199 27.7935 646.233 27.8409 646.28C27.8883 646.322 27.9409 646.38 27.9989 646.454L33.9855 654.099C33.9697 653.915 33.9565 653.733 33.946 653.554C33.9354 653.375 33.9302 653.209 33.9302 653.057V646.114H35.802Z" fill="white"/>
<path d="M22.8277 657.535H20.6953V646.114H22.8277V657.535Z" fill="white"/>
<path d="M89.0412 625.114L85.4951 636.535H83.5759L81.0801 628.731C81.0117 628.542 80.9485 628.31 80.8906 628.036C80.859 628.168 80.8274 628.292 80.7958 628.408C80.7642 628.524 80.73 628.631 80.6931 628.731L78.1737 636.535H76.2466L72.7084 625.114H74.4854C74.6697 625.114 74.8224 625.159 74.9435 625.249C75.0698 625.333 75.1541 625.449 75.1962 625.596L77.1391 632.428C77.1812 632.596 77.2207 632.78 77.2576 632.981C77.2997 633.175 77.3418 633.381 77.3839 633.597C77.426 633.375 77.4708 633.167 77.5182 632.973C77.5708 632.778 77.6261 632.596 77.684 632.428L79.927 625.596C79.9692 625.475 80.0508 625.364 80.1719 625.264C80.2982 625.164 80.4509 625.114 80.63 625.114H81.2539C81.4382 625.114 81.5882 625.159 81.7041 625.249C81.8199 625.338 81.9068 625.454 81.9647 625.596L84.1998 632.428C84.3104 632.754 84.4104 633.131 84.4999 633.557C84.5684 633.141 84.6447 632.765 84.729 632.428L86.6718 625.596C86.7034 625.464 86.7824 625.351 86.9088 625.256C87.0404 625.162 87.1957 625.114 87.3748 625.114H89.0412Z" fill="white"/>
<path d="M66.1026 626.804V629.971H70.099V631.606H66.1026V634.837H71.1731V636.535H63.9702V625.114H71.1731V626.804H66.1026Z" fill="white"/>
<path d="M60.6372 625.114V636.535H59.5473C59.3788 636.535 59.2366 636.508 59.1208 636.456C59.0102 636.398 58.9023 636.303 58.797 636.171L52.8341 628.558C52.8656 628.905 52.8814 629.226 52.8814 629.521V636.535H51.0096V625.114H52.1232C52.2128 625.114 52.2891 625.12 52.3523 625.13C52.4207 625.135 52.4787 625.151 52.526 625.177C52.5787 625.199 52.6287 625.233 52.6761 625.28C52.7235 625.322 52.7761 625.38 52.8341 625.454L58.8207 633.099C58.8049 632.915 58.7917 632.733 58.7812 632.554C58.7706 632.375 58.7654 632.209 58.7654 632.057V625.114H60.6372Z" fill="white"/>
<path d="M305.532 642.379V646.802H303.416V642.379L299.254 635.381H301.125C301.31 635.381 301.455 635.426 301.56 635.516C301.67 635.605 301.763 635.718 301.836 635.855L303.921 639.67C304.042 639.896 304.148 640.11 304.237 640.31C304.332 640.51 304.416 640.71 304.49 640.91C304.558 640.71 304.637 640.51 304.727 640.31C304.816 640.11 304.919 639.896 305.035 639.67L307.112 635.855C307.17 635.739 307.257 635.631 307.373 635.531C307.489 635.431 307.636 635.381 307.815 635.381H309.695L305.532 642.379Z" fill="white"/>
<path d="M293.664 640.815C294.064 640.815 294.411 640.765 294.706 640.665C295.006 640.565 295.251 640.428 295.441 640.254C295.636 640.075 295.78 639.865 295.875 639.623C295.97 639.38 296.017 639.114 296.017 638.825C296.017 638.246 295.825 637.801 295.441 637.49C295.062 637.179 294.48 637.024 293.695 637.024H292.337V640.815H293.664ZM299.129 646.802H297.21C296.847 646.802 296.583 646.66 296.42 646.375L294.019 642.718C293.93 642.582 293.83 642.484 293.719 642.426C293.614 642.368 293.456 642.339 293.245 642.339H292.337V646.802H290.212V635.381H293.695C294.469 635.381 295.133 635.463 295.686 635.626C296.244 635.784 296.699 636.008 297.052 636.298C297.41 636.587 297.673 636.935 297.842 637.34C298.01 637.74 298.095 638.182 298.095 638.667C298.095 639.051 298.037 639.415 297.921 639.757C297.81 640.099 297.647 640.41 297.431 640.689C297.22 640.968 296.957 641.213 296.641 641.423C296.331 641.634 295.975 641.8 295.575 641.921C295.712 642 295.838 642.095 295.954 642.205C296.07 642.31 296.175 642.437 296.27 642.584L299.129 646.802Z" fill="white"/>
<path d="M282.469 637.071V640.239H286.466V641.873H282.469V645.104H287.54V646.802H280.337V635.381H287.54V637.071H282.469Z" fill="white"/>
<path d="M278.365 635.381L273.753 646.802H271.834L267.221 635.381H268.927C269.111 635.381 269.261 635.426 269.377 635.516C269.493 635.605 269.58 635.721 269.638 635.863L272.331 642.829C272.421 643.055 272.505 643.306 272.584 643.579C272.668 643.848 272.747 644.13 272.821 644.424C272.884 644.13 272.952 643.848 273.026 643.579C273.1 643.306 273.181 643.055 273.271 642.829L275.948 635.863C275.99 635.742 276.072 635.631 276.193 635.531C276.32 635.431 276.472 635.381 276.651 635.381H278.365Z" fill="white"/>
<path d="M266.294 641.091C266.294 641.929 266.155 642.705 265.876 643.421C265.602 644.132 265.212 644.748 264.707 645.269C264.201 645.791 263.593 646.199 262.882 646.494C262.172 646.783 261.382 646.928 260.513 646.928C259.65 646.928 258.862 646.783 258.152 646.494C257.441 646.199 256.83 645.791 256.319 645.269C255.814 644.748 255.422 644.132 255.142 643.421C254.863 642.705 254.724 641.929 254.724 641.091C254.724 640.254 254.863 639.48 255.142 638.769C255.422 638.053 255.814 637.435 256.319 636.913C256.83 636.392 257.441 635.987 258.152 635.697C258.862 635.402 259.65 635.255 260.513 635.255C261.092 635.255 261.637 635.323 262.148 635.46C262.659 635.592 263.127 635.781 263.554 636.029C263.98 636.271 264.362 636.569 264.699 636.921C265.041 637.269 265.331 637.658 265.568 638.09C265.805 638.522 265.984 638.991 266.105 639.496C266.231 640.002 266.294 640.533 266.294 641.091ZM264.122 641.091C264.122 640.465 264.038 639.904 263.87 639.409C263.701 638.909 263.462 638.485 263.151 638.138C262.84 637.79 262.461 637.524 262.014 637.34C261.571 637.156 261.071 637.064 260.513 637.064C259.955 637.064 259.452 637.156 259.005 637.34C258.562 637.524 258.183 637.79 257.867 638.138C257.557 638.485 257.317 638.909 257.149 639.409C256.98 639.904 256.896 640.465 256.896 641.091C256.896 641.718 256.98 642.281 257.149 642.782C257.317 643.277 257.557 643.698 257.867 644.045C258.183 644.387 258.562 644.651 259.005 644.835C259.452 645.019 259.955 645.111 260.513 645.111C261.071 645.111 261.571 645.019 262.014 644.835C262.461 644.651 262.84 644.387 263.151 644.045C263.462 643.698 263.701 643.277 263.87 642.782C264.038 642.281 264.122 641.718 264.122 641.091Z" fill="white"/>
<path d="M252.26 644.108C252.376 644.108 252.478 644.153 252.568 644.243L253.405 645.151C252.942 645.725 252.37 646.165 251.691 646.47C251.017 646.775 250.206 646.928 249.258 646.928C248.411 646.928 247.647 646.783 246.968 646.494C246.294 646.204 245.718 645.801 245.238 645.285C244.759 644.769 244.391 644.153 244.133 643.437C243.88 642.721 243.754 641.939 243.754 641.091C243.754 640.233 243.891 639.449 244.164 638.738C244.438 638.022 244.823 637.406 245.317 636.89C245.818 636.374 246.413 635.974 247.102 635.689C247.792 635.4 248.556 635.255 249.393 635.255C250.225 635.255 250.962 635.392 251.604 635.666C252.252 635.939 252.802 636.297 253.255 636.74L252.544 637.727C252.502 637.79 252.447 637.845 252.378 637.893C252.315 637.94 252.225 637.964 252.11 637.964C252.031 637.964 251.949 637.943 251.865 637.901C251.781 637.853 251.688 637.798 251.588 637.735C251.488 637.666 251.373 637.593 251.241 637.514C251.109 637.435 250.957 637.364 250.783 637.3C250.609 637.232 250.406 637.177 250.175 637.135C249.948 637.087 249.685 637.064 249.385 637.064C248.874 637.064 248.406 637.156 247.979 637.34C247.558 637.519 247.195 637.782 246.889 638.13C246.584 638.472 246.347 638.893 246.178 639.393C246.01 639.888 245.926 640.454 245.926 641.091C245.926 641.734 246.015 642.305 246.194 642.805C246.378 643.305 246.626 643.727 246.937 644.069C247.247 644.411 247.613 644.674 248.034 644.859C248.456 645.038 248.908 645.127 249.393 645.127C249.682 645.127 249.943 645.111 250.175 645.08C250.412 645.048 250.627 644.998 250.822 644.93C251.022 644.861 251.209 644.774 251.383 644.669C251.562 644.559 251.738 644.424 251.912 644.266C251.965 644.219 252.02 644.182 252.078 644.156C252.136 644.124 252.197 644.108 252.26 644.108Z" fill="white"/>
<path d="M241.039 637.458C240.976 637.569 240.908 637.651 240.834 637.703C240.766 637.751 240.679 637.774 240.573 637.774C240.463 637.774 240.342 637.735 240.21 637.656C240.084 637.572 239.931 637.479 239.752 637.379C239.573 637.279 239.362 637.19 239.12 637.111C238.883 637.027 238.602 636.985 238.275 636.985C237.98 636.985 237.722 637.021 237.501 637.095C237.28 637.164 237.093 637.261 236.94 637.387C236.793 637.514 236.682 637.666 236.609 637.845C236.535 638.019 236.498 638.211 236.498 638.422C236.498 638.69 236.572 638.914 236.719 639.093C236.872 639.272 237.072 639.425 237.32 639.551C237.567 639.678 237.849 639.791 238.165 639.891C238.481 639.991 238.804 640.099 239.136 640.215C239.468 640.325 239.792 640.457 240.107 640.61C240.423 640.757 240.705 640.947 240.953 641.178C241.2 641.405 241.397 641.684 241.545 642.015C241.698 642.347 241.774 642.75 241.774 643.224C241.774 643.74 241.684 644.224 241.505 644.677C241.332 645.125 241.074 645.517 240.731 645.854C240.394 646.186 239.981 646.449 239.491 646.644C239.002 646.833 238.441 646.928 237.809 646.928C237.446 646.928 237.088 646.891 236.735 646.817C236.382 646.749 236.043 646.649 235.716 646.517C235.395 646.386 235.092 646.228 234.808 646.043C234.524 645.859 234.271 645.654 234.05 645.427L234.674 644.409C234.726 644.335 234.795 644.274 234.879 644.227C234.963 644.174 235.053 644.148 235.148 644.148C235.279 644.148 235.421 644.203 235.574 644.314C235.727 644.419 235.908 644.538 236.119 644.669C236.33 644.801 236.574 644.922 236.854 645.032C237.138 645.138 237.477 645.19 237.872 645.19C238.478 645.19 238.946 645.048 239.278 644.764C239.61 644.474 239.776 644.061 239.776 643.524C239.776 643.224 239.699 642.979 239.547 642.789C239.399 642.6 239.202 642.442 238.954 642.316C238.707 642.184 238.425 642.073 238.109 641.984C237.793 641.894 237.472 641.797 237.146 641.692C236.819 641.586 236.498 641.46 236.182 641.313C235.866 641.165 235.585 640.973 235.337 640.736C235.09 640.499 234.89 640.204 234.737 639.851C234.589 639.493 234.516 639.054 234.516 638.533C234.516 638.117 234.597 637.711 234.761 637.316C234.929 636.921 235.171 636.571 235.487 636.266C235.803 635.96 236.193 635.716 236.656 635.531C237.119 635.347 237.651 635.255 238.251 635.255C238.925 635.255 239.547 635.36 240.115 635.571C240.684 635.781 241.168 636.076 241.569 636.455L241.039 637.458Z" fill="white"/>
<path d="M231.611 646.802H229.479V635.381H231.611V646.802Z" fill="white"/>
<path d="M226.814 641.092C226.814 641.929 226.674 642.697 226.395 643.398C226.116 644.098 225.724 644.701 225.218 645.206C224.713 645.712 224.105 646.104 223.394 646.383C222.683 646.662 221.893 646.802 221.024 646.802H216.673V635.381H221.024C221.893 635.381 222.683 635.524 223.394 635.808C224.105 636.087 224.713 636.479 225.218 636.985C225.724 637.485 226.116 638.085 226.395 638.785C226.674 639.486 226.814 640.254 226.814 641.092ZM224.634 641.092C224.634 640.465 224.549 639.904 224.381 639.409C224.218 638.909 223.978 638.488 223.662 638.146C223.352 637.798 222.972 637.532 222.525 637.348C222.083 637.164 221.582 637.071 221.024 637.071H218.805V645.112H221.024C221.582 645.112 222.083 645.019 222.525 644.835C222.972 644.651 223.352 644.388 223.662 644.045C223.978 643.698 224.218 643.277 224.381 642.782C224.549 642.281 224.634 641.718 224.634 641.092Z" fill="white"/>
<path d="M493.519 641.076V645.696C492.94 646.122 492.321 646.436 491.663 646.636C491.01 646.831 490.31 646.928 489.562 646.928C488.63 646.928 487.785 646.783 487.027 646.494C486.274 646.204 485.629 645.801 485.092 645.285C484.56 644.769 484.15 644.153 483.86 643.437C483.571 642.721 483.426 641.939 483.426 641.091C483.426 640.233 483.565 639.446 483.844 638.73C484.123 638.014 484.518 637.398 485.029 636.882C485.545 636.366 486.169 635.966 486.901 635.681C487.633 635.397 488.454 635.255 489.365 635.255C489.828 635.255 490.26 635.292 490.66 635.365C491.066 635.439 491.44 635.542 491.782 635.673C492.129 635.8 492.445 635.955 492.729 636.139C493.014 636.324 493.274 636.526 493.511 636.748L492.903 637.711C492.808 637.864 492.685 637.959 492.532 637.995C492.379 638.027 492.214 637.988 492.034 637.877C491.861 637.777 491.687 637.677 491.513 637.577C491.339 637.477 491.145 637.39 490.929 637.316C490.718 637.243 490.479 637.182 490.21 637.135C489.947 637.087 489.641 637.064 489.294 637.064C488.731 637.064 488.22 637.158 487.762 637.348C487.309 637.537 486.922 637.809 486.601 638.161C486.28 638.514 486.032 638.938 485.858 639.433C485.685 639.928 485.598 640.481 485.598 641.091C485.598 641.744 485.69 642.329 485.874 642.845C486.064 643.355 486.327 643.79 486.664 644.148C487.006 644.501 487.417 644.772 487.896 644.961C488.375 645.146 488.91 645.238 489.499 645.238C489.92 645.238 490.297 645.193 490.629 645.104C490.96 645.014 491.284 644.893 491.6 644.74V642.671H490.163C490.026 642.671 489.918 642.634 489.839 642.56C489.765 642.481 489.728 642.387 489.728 642.276V641.076H493.519Z" fill="white"/>
<path d="M480.772 635.381V646.802H479.682C479.514 646.802 479.372 646.775 479.256 646.723C479.145 646.665 479.037 646.57 478.932 646.438L472.969 638.825C473.001 639.172 473.016 639.494 473.016 639.788V646.802H471.145V635.381H472.258C472.348 635.381 472.424 635.387 472.487 635.397C472.556 635.402 472.614 635.418 472.661 635.445C472.714 635.466 472.764 635.5 472.811 635.547C472.858 635.589 472.911 635.647 472.969 635.721L478.956 643.366C478.94 643.182 478.927 643 478.916 642.821C478.906 642.642 478.9 642.476 478.9 642.324V635.381H480.772Z" fill="white"/>
<path d="M467.798 646.802H465.665V635.381H467.798V646.802Z" fill="white"/>
<path d="M458.177 640.815C458.577 640.815 458.924 640.765 459.219 640.665C459.519 640.565 459.764 640.428 459.954 640.254C460.149 640.075 460.293 639.865 460.388 639.623C460.483 639.38 460.53 639.114 460.53 638.825C460.53 638.246 460.338 637.801 459.954 637.49C459.575 637.179 458.993 637.024 458.208 637.024H456.85V640.815H458.177ZM463.642 646.802H461.723C461.36 646.802 461.096 646.66 460.933 646.375L458.532 642.718C458.443 642.582 458.343 642.484 458.232 642.426C458.127 642.368 457.969 642.339 457.758 642.339H456.85V646.802H454.725V635.381H458.208C458.982 635.381 459.646 635.463 460.199 635.626C460.757 635.784 461.212 636.008 461.565 636.298C461.923 636.587 462.186 636.935 462.355 637.34C462.523 637.74 462.607 638.182 462.607 638.667C462.607 639.051 462.55 639.415 462.434 639.757C462.323 640.099 462.16 640.41 461.944 640.689C461.733 640.968 461.47 641.213 461.154 641.423C460.844 641.634 460.488 641.8 460.088 641.921C460.225 642 460.351 642.095 460.467 642.205C460.583 642.31 460.688 642.437 460.783 642.584L463.642 646.802Z" fill="white"/>
<path d="M452.07 641.091C452.07 641.929 451.93 642.705 451.651 643.421C451.378 644.132 450.988 644.748 450.482 645.269C449.977 645.791 449.369 646.199 448.658 646.494C447.947 646.783 447.157 646.928 446.289 646.928C445.425 646.928 444.638 646.783 443.927 646.494C443.216 646.199 442.606 645.791 442.095 645.269C441.589 644.748 441.197 644.132 440.918 643.421C440.639 642.705 440.5 641.929 440.5 641.091C440.5 640.254 440.639 639.48 440.918 638.769C441.197 638.053 441.589 637.435 442.095 636.913C442.606 636.392 443.216 635.987 443.927 635.697C444.638 635.402 445.425 635.255 446.289 635.255C446.868 635.255 447.413 635.323 447.924 635.46C448.434 635.592 448.903 635.781 449.329 636.029C449.756 636.271 450.138 636.569 450.475 636.921C450.817 637.269 451.106 637.658 451.343 638.09C451.58 638.522 451.759 638.991 451.88 639.496C452.007 640.002 452.07 640.533 452.07 641.091ZM449.898 641.091C449.898 640.465 449.814 639.904 449.645 639.409C449.477 638.909 449.237 638.485 448.927 638.138C448.616 637.79 448.237 637.524 447.789 637.34C447.347 637.156 446.847 637.064 446.289 637.064C445.731 637.064 445.228 637.156 444.78 637.34C444.338 637.524 443.959 637.79 443.643 638.138C443.332 638.485 443.093 638.909 442.924 639.409C442.756 639.904 442.671 640.465 442.671 641.091C442.671 641.718 442.756 642.281 442.924 642.782C443.093 643.277 443.332 643.698 443.643 644.045C443.959 644.387 444.338 644.651 444.78 644.835C445.228 645.019 445.731 645.111 446.289 645.111C446.847 645.111 447.347 645.019 447.789 644.835C448.237 644.651 448.616 644.387 448.927 644.045C449.237 643.698 449.477 643.277 449.645 642.782C449.814 642.281 449.898 641.718 449.898 641.091Z" fill="white"/>
<path d="M438.035 644.108C438.151 644.108 438.254 644.153 438.343 644.243L439.181 645.151C438.717 645.725 438.146 646.165 437.467 646.47C436.793 646.775 435.982 646.928 435.034 646.928C434.186 646.928 433.423 646.783 432.744 646.494C432.07 646.204 431.493 645.801 431.014 645.285C430.535 644.769 430.166 644.153 429.908 643.437C429.656 642.721 429.529 641.939 429.529 641.091C429.529 640.233 429.666 639.449 429.94 638.738C430.214 638.022 430.598 637.406 431.093 636.89C431.593 636.374 432.188 635.974 432.878 635.689C433.568 635.4 434.331 635.255 435.168 635.255C436 635.255 436.737 635.392 437.38 635.666C438.027 635.939 438.578 636.297 439.03 636.74L438.32 637.727C438.278 637.79 438.222 637.845 438.154 637.893C438.091 637.94 438.001 637.964 437.885 637.964C437.806 637.964 437.725 637.943 437.64 637.901C437.556 637.853 437.464 637.798 437.364 637.735C437.264 637.666 437.148 637.593 437.017 637.514C436.885 637.435 436.732 637.364 436.558 637.3C436.385 637.232 436.182 637.177 435.95 637.135C435.724 637.087 435.461 637.064 435.16 637.064C434.65 637.064 434.181 637.156 433.755 637.34C433.333 637.519 432.97 637.782 432.665 638.13C432.359 638.472 432.122 638.893 431.954 639.393C431.785 639.888 431.701 640.454 431.701 641.091C431.701 641.734 431.791 642.305 431.97 642.805C432.154 643.305 432.401 643.727 432.712 644.069C433.023 644.411 433.389 644.674 433.81 644.859C434.231 645.038 434.684 645.127 435.168 645.127C435.458 645.127 435.719 645.111 435.95 645.08C436.187 645.048 436.403 644.998 436.598 644.93C436.798 644.861 436.985 644.774 437.159 644.669C437.338 644.559 437.514 644.424 437.688 644.266C437.74 644.219 437.796 644.182 437.854 644.156C437.912 644.124 437.972 644.108 438.035 644.108Z" fill="white"/>
<path d="M426.815 637.458C426.752 637.569 426.683 637.651 426.61 637.703C426.541 637.751 426.454 637.774 426.349 637.774C426.239 637.774 426.117 637.735 425.986 637.656C425.859 637.572 425.707 637.479 425.528 637.379C425.349 637.279 425.138 637.19 424.896 637.111C424.659 637.027 424.377 636.985 424.051 636.985C423.756 636.985 423.498 637.021 423.277 637.095C423.056 637.164 422.869 637.261 422.716 637.387C422.569 637.514 422.458 637.666 422.384 637.845C422.311 638.019 422.274 638.211 422.274 638.422C422.274 638.69 422.348 638.914 422.495 639.093C422.648 639.272 422.848 639.425 423.095 639.551C423.343 639.678 423.624 639.791 423.94 639.891C424.256 639.991 424.58 640.099 424.912 640.215C425.243 640.325 425.567 640.457 425.883 640.61C426.199 640.757 426.481 640.947 426.728 641.178C426.976 641.405 427.173 641.684 427.321 642.015C427.473 642.347 427.55 642.75 427.55 643.224C427.55 643.74 427.46 644.224 427.281 644.677C427.107 645.125 426.849 645.517 426.507 645.854C426.17 646.186 425.757 646.449 425.267 646.644C424.777 646.833 424.217 646.928 423.585 646.928C423.222 646.928 422.863 646.891 422.511 646.817C422.158 646.749 421.818 646.649 421.492 646.517C421.171 646.386 420.868 646.228 420.584 646.043C420.299 645.859 420.047 645.654 419.825 645.427L420.449 644.409C420.502 644.335 420.57 644.274 420.655 644.227C420.739 644.174 420.828 644.148 420.923 644.148C421.055 644.148 421.197 644.203 421.35 644.314C421.502 644.419 421.684 644.538 421.895 644.669C422.105 644.801 422.35 644.922 422.629 645.032C422.914 645.138 423.253 645.19 423.648 645.19C424.254 645.19 424.722 645.048 425.054 644.764C425.386 644.474 425.551 644.061 425.551 643.524C425.551 643.224 425.475 642.979 425.322 642.789C425.175 642.6 424.978 642.442 424.73 642.316C424.483 642.184 424.201 642.073 423.885 641.984C423.569 641.894 423.248 641.797 422.921 641.692C422.595 641.586 422.274 641.46 421.958 641.313C421.642 641.165 421.36 640.973 421.113 640.736C420.865 640.499 420.665 640.204 420.513 639.851C420.365 639.493 420.291 639.054 420.291 638.533C420.291 638.117 420.373 637.711 420.536 637.316C420.705 636.921 420.947 636.571 421.263 636.266C421.579 635.96 421.968 635.716 422.432 635.531C422.895 635.347 423.427 635.255 424.027 635.255C424.701 635.255 425.322 635.36 425.891 635.571C426.46 635.781 426.944 636.076 427.344 636.455L426.815 637.458Z" fill="white"/>
<path d="M304.875 96.3568V99.5238H308.871V101.159H304.875V104.389H309.945V106.087H302.742V94.6666H309.945V96.3568H304.875Z" fill="white"/>
<path d="M295.254 100.1C295.654 100.1 296.002 100.05 296.297 99.9503C296.597 99.8503 296.841 99.7134 297.031 99.5396C297.226 99.3606 297.371 99.15 297.465 98.9078C297.56 98.6656 297.608 98.3997 297.608 98.1101C297.608 97.5309 297.415 97.086 297.031 96.7754C296.652 96.4647 296.07 96.3094 295.286 96.3094H293.927V100.1H295.254ZM300.719 106.087H298.8C298.437 106.087 298.174 105.945 298.01 105.66L295.609 102.004C295.52 101.867 295.42 101.769 295.309 101.712C295.204 101.654 295.046 101.625 294.835 101.625H293.927V106.087H291.803V94.6666H295.286C296.06 94.6666 296.723 94.7482 297.276 94.9115C297.834 95.0694 298.289 95.2932 298.642 95.5828C299 95.8724 299.263 96.2199 299.432 96.6253C299.6 97.0255 299.685 97.4677 299.685 97.9522C299.685 98.3365 299.627 98.6998 299.511 99.0421C299.4 99.3843 299.237 99.695 299.021 99.974C298.811 100.253 298.547 100.498 298.231 100.709C297.921 100.919 297.565 101.085 297.165 101.206C297.302 101.285 297.429 101.38 297.544 101.49C297.66 101.596 297.766 101.722 297.86 101.87L300.719 106.087Z" fill="white"/>
<path d="M283.886 104.373C284.297 104.373 284.663 104.305 284.984 104.168C285.31 104.031 285.584 103.839 285.805 103.591C286.026 103.344 286.195 103.044 286.311 102.691C286.432 102.338 286.492 101.943 286.492 101.506V94.6666H288.617V101.506C288.617 102.185 288.506 102.815 288.285 103.394C288.069 103.968 287.756 104.465 287.345 104.887C286.94 105.302 286.445 105.629 285.86 105.866C285.276 106.098 284.618 106.213 283.886 106.213C283.149 106.213 282.488 106.098 281.904 105.866C281.319 105.629 280.822 105.302 280.411 104.887C280.005 104.465 279.692 103.968 279.471 103.394C279.255 102.815 279.147 102.185 279.147 101.506V94.6666H281.272V101.498C281.272 101.935 281.33 102.33 281.446 102.683C281.567 103.036 281.738 103.339 281.959 103.591C282.185 103.839 282.459 104.031 282.78 104.168C283.107 104.305 283.475 104.373 283.886 104.373Z" fill="white"/>
<path d="M277.005 96.4121H273.562V106.087H271.437V96.4121H267.994V94.6666H277.005V96.4121Z" fill="white"/>
<path d="M265.638 103.394C265.754 103.394 265.857 103.439 265.946 103.528L266.783 104.436C266.32 105.01 265.749 105.45 265.069 105.755C264.395 106.061 263.585 106.213 262.637 106.213C261.789 106.213 261.026 106.069 260.346 105.779C259.672 105.489 259.096 105.087 258.617 104.571C258.138 104.055 257.769 103.439 257.511 102.723C257.258 102.006 257.132 101.225 257.132 100.377C257.132 99.5186 257.269 98.7341 257.543 98.0233C257.816 97.3072 258.201 96.6911 258.696 96.1751C259.196 95.6592 259.791 95.259 260.481 94.9747C261.17 94.6851 261.934 94.5403 262.771 94.5403C263.603 94.5403 264.34 94.6772 264.982 94.951C265.63 95.2248 266.18 95.5828 266.633 96.0251L265.922 97.0123C265.88 97.0755 265.825 97.1308 265.756 97.1782C265.693 97.2256 265.604 97.2493 265.488 97.2493C265.409 97.2493 265.327 97.2282 265.243 97.1861C265.159 97.1387 265.067 97.0834 264.967 97.0202C264.867 96.9518 264.751 96.8781 264.619 96.7991C264.488 96.7201 264.335 96.649 264.161 96.5858C263.987 96.5174 263.785 96.4621 263.553 96.42C263.327 96.3726 263.063 96.3489 262.763 96.3489C262.252 96.3489 261.784 96.441 261.357 96.6253C260.936 96.8043 260.573 97.0676 260.267 97.4151C259.962 97.7574 259.725 98.1786 259.557 98.6788C259.388 99.1737 259.304 99.7397 259.304 100.377C259.304 101.019 259.393 101.59 259.572 102.091C259.757 102.591 260.004 103.012 260.315 103.354C260.625 103.697 260.991 103.96 261.413 104.144C261.834 104.323 262.287 104.413 262.771 104.413C263.061 104.413 263.321 104.397 263.553 104.365C263.79 104.334 264.006 104.284 264.201 104.215C264.401 104.147 264.588 104.06 264.761 103.955C264.94 103.844 265.117 103.71 265.29 103.552C265.343 103.504 265.398 103.468 265.456 103.441C265.514 103.41 265.575 103.394 265.638 103.394Z" fill="white"/>
<path d="M249.879 104.373C250.289 104.373 250.655 104.305 250.977 104.168C251.303 104.031 251.577 103.839 251.798 103.591C252.019 103.344 252.188 103.044 252.303 102.691C252.425 102.338 252.485 101.943 252.485 101.506V94.6666H254.61V101.506C254.61 102.185 254.499 102.815 254.278 103.394C254.062 103.968 253.749 104.465 253.338 104.887C252.933 105.302 252.438 105.629 251.853 105.866C251.269 106.098 250.611 106.213 249.879 106.213C249.142 106.213 248.481 106.098 247.896 105.866C247.312 105.629 246.814 105.302 246.404 104.887C245.998 104.465 245.685 103.968 245.464 103.394C245.248 102.815 245.14 102.185 245.14 101.506V94.6666H247.265V101.498C247.265 101.935 247.322 102.33 247.438 102.683C247.559 103.036 247.731 103.339 247.952 103.591C248.178 103.839 248.452 104.031 248.773 104.168C249.099 104.305 249.468 104.373 249.879 104.373Z" fill="white"/>
<path d="M237.886 100.1C238.286 100.1 238.634 100.05 238.929 99.9503C239.229 99.8503 239.474 99.7134 239.663 99.5396C239.858 99.3606 240.003 99.15 240.098 98.9078C240.193 98.6656 240.24 98.3997 240.24 98.1101C240.24 97.5309 240.048 97.086 239.663 96.7754C239.284 96.4647 238.702 96.3094 237.918 96.3094H236.559V100.1H237.886ZM243.352 106.087H241.432C241.069 106.087 240.806 105.945 240.643 105.66L238.242 102.004C238.152 101.867 238.052 101.769 237.942 101.712C237.836 101.654 237.678 101.625 237.468 101.625H236.559V106.087H234.435V94.6666H237.918C238.692 94.6666 239.355 94.7482 239.908 94.9115C240.466 95.0694 240.922 95.2932 241.275 95.5828C241.633 95.8724 241.896 96.2199 242.064 96.6253C242.233 97.0255 242.317 97.4677 242.317 97.9522C242.317 98.3365 242.259 98.6998 242.143 99.0421C242.033 99.3843 241.869 99.695 241.654 99.974C241.443 100.253 241.18 100.498 240.864 100.709C240.553 100.919 240.198 101.085 239.798 101.206C239.935 101.285 240.061 101.38 240.177 101.49C240.293 101.596 240.398 101.722 240.493 101.87L243.352 106.087Z" fill="white"/>
<path d="M232.151 96.4121H228.707V106.087H226.583V96.4121H223.139V94.6666H232.151V96.4121Z" fill="white"/>
<path d="M220.796 96.7438C220.733 96.8544 220.665 96.936 220.591 96.9886C220.522 97.036 220.436 97.0597 220.33 97.0597C220.22 97.0597 220.099 97.0202 219.967 96.9412C219.841 96.857 219.688 96.7649 219.509 96.6648C219.33 96.5648 219.119 96.4753 218.877 96.3963C218.64 96.312 218.358 96.2699 218.032 96.2699C217.737 96.2699 217.479 96.3068 217.258 96.3805C217.037 96.4489 216.85 96.5463 216.697 96.6727C216.55 96.7991 216.439 96.9518 216.366 97.1308C216.292 97.3045 216.255 97.4967 216.255 97.7073C216.255 97.9759 216.329 98.1996 216.476 98.3787C216.629 98.5577 216.829 98.7104 217.076 98.8367C217.324 98.9631 217.606 99.0763 217.921 99.1763C218.237 99.2764 218.561 99.3843 218.893 99.5002C219.225 99.6107 219.548 99.7424 219.864 99.8951C220.18 100.042 220.462 100.232 220.709 100.464C220.957 100.69 221.154 100.969 221.302 101.301C221.454 101.633 221.531 102.035 221.531 102.509C221.531 103.025 221.441 103.51 221.262 103.962C221.089 104.41 220.831 104.802 220.488 105.139C220.151 105.471 219.738 105.734 219.248 105.929C218.759 106.119 218.198 106.213 217.566 106.213C217.203 106.213 216.845 106.177 216.492 106.103C216.139 106.034 215.8 105.934 215.473 105.803C215.152 105.671 214.849 105.513 214.565 105.329C214.281 105.145 214.028 104.939 213.807 104.713L214.431 103.694C214.483 103.62 214.552 103.56 214.636 103.512C214.72 103.46 214.81 103.433 214.904 103.433C215.036 103.433 215.178 103.489 215.331 103.599C215.484 103.704 215.665 103.823 215.876 103.955C216.087 104.086 216.331 104.207 216.61 104.318C216.895 104.423 217.234 104.476 217.629 104.476C218.235 104.476 218.703 104.334 219.035 104.049C219.367 103.76 219.533 103.346 219.533 102.809C219.533 102.509 219.456 102.264 219.304 102.075C219.156 101.885 218.959 101.727 218.711 101.601C218.464 101.469 218.182 101.359 217.866 101.269C217.55 101.18 217.229 101.082 216.903 100.977C216.576 100.872 216.255 100.745 215.939 100.598C215.623 100.451 215.341 100.258 215.094 100.021C214.847 99.7845 214.646 99.4896 214.494 99.1369C214.346 98.7788 214.273 98.3392 214.273 97.8179C214.273 97.402 214.354 96.9965 214.517 96.6016C214.686 96.2067 214.928 95.8566 215.244 95.5512C215.56 95.2458 215.95 95.001 216.413 94.8167C216.876 94.6324 217.408 94.5403 218.008 94.5403C218.682 94.5403 219.304 94.6456 219.872 94.8562C220.441 95.0668 220.925 95.3617 221.325 95.7408L220.796 96.7438Z" fill="white"/>
<path d="M484.076 106.348V117.769H481.943V112.777H476.58V117.769H474.448V106.348H476.58V111.261H481.943V106.348H484.076Z" fill="white"/>
<path d="M467.59 112.09C467.98 112.09 468.32 112.043 468.609 111.948C468.899 111.848 469.138 111.708 469.328 111.529C469.523 111.345 469.668 111.124 469.762 110.866C469.857 110.603 469.905 110.311 469.905 109.989C469.905 109.684 469.857 109.408 469.762 109.16C469.668 108.913 469.525 108.702 469.336 108.528C469.146 108.354 468.907 108.223 468.617 108.133C468.328 108.039 467.985 107.991 467.59 107.991H466.003V112.09H467.59ZM467.59 106.348C468.354 106.348 469.015 106.438 469.573 106.617C470.131 106.796 470.592 107.046 470.955 107.367C471.318 107.688 471.587 108.073 471.761 108.52C471.94 108.968 472.029 109.458 472.029 109.989C472.029 110.542 471.937 111.05 471.753 111.514C471.568 111.972 471.292 112.367 470.923 112.698C470.555 113.03 470.091 113.288 469.533 113.472C468.98 113.657 468.333 113.749 467.59 113.749H466.003V117.769H463.878V106.348H467.59Z" fill="white"/>
<path d="M458.155 113.456L456.765 109.658C456.696 109.489 456.625 109.289 456.552 109.057C456.478 108.826 456.404 108.576 456.33 108.307C456.262 108.576 456.191 108.828 456.117 109.065C456.044 109.297 455.972 109.5 455.904 109.673L454.522 113.456H458.155ZM461.906 117.769H460.264C460.079 117.769 459.929 117.724 459.813 117.634C459.698 117.54 459.611 117.424 459.553 117.287L458.7 114.957H453.969L453.116 117.287C453.074 117.408 452.992 117.519 452.871 117.619C452.75 117.719 452.6 117.769 452.421 117.769H450.762L455.256 106.348H457.42L461.906 117.769Z" fill="white"/>
<path d="M444.633 111.782C445.033 111.782 445.38 111.732 445.675 111.632C445.975 111.532 446.22 111.395 446.41 111.221C446.604 111.042 446.749 110.832 446.844 110.59C446.939 110.347 446.986 110.081 446.986 109.792C446.986 109.213 446.794 108.768 446.41 108.457C446.03 108.146 445.449 107.991 444.664 107.991H443.306V111.782H444.633ZM450.098 117.769H448.179C447.815 117.769 447.552 117.627 447.389 117.342L444.988 113.686C444.898 113.549 444.798 113.451 444.688 113.393C444.583 113.335 444.425 113.306 444.214 113.306H443.306V117.769H441.181V106.348H444.664C445.438 106.348 446.102 106.43 446.654 106.593C447.213 106.751 447.668 106.975 448.021 107.265C448.379 107.554 448.642 107.902 448.811 108.307C448.979 108.707 449.063 109.15 449.063 109.634C449.063 110.018 449.005 110.382 448.889 110.724C448.779 111.066 448.616 111.377 448.4 111.656C448.189 111.935 447.926 112.18 447.61 112.39C447.299 112.601 446.944 112.767 446.544 112.888C446.681 112.967 446.807 113.062 446.923 113.172C447.039 113.277 447.144 113.404 447.239 113.551L450.098 117.769Z" fill="white"/>
<path d="M438.344 112.043V116.663C437.765 117.09 437.147 117.403 436.488 117.603C435.836 117.798 435.135 117.895 434.388 117.895C433.456 117.895 432.611 117.75 431.852 117.461C431.099 117.171 430.454 116.768 429.917 116.252C429.386 115.736 428.975 115.12 428.685 114.404C428.396 113.688 428.251 112.906 428.251 112.059C428.251 111.2 428.391 110.413 428.67 109.697C428.949 108.981 429.344 108.365 429.854 107.849C430.37 107.333 430.994 106.933 431.726 106.649C432.458 106.364 433.279 106.222 434.19 106.222C434.654 106.222 435.085 106.259 435.485 106.333C435.891 106.406 436.265 106.509 436.607 106.641C436.954 106.767 437.27 106.922 437.555 107.107C437.839 107.291 438.1 107.494 438.337 107.715L437.728 108.678C437.634 108.831 437.51 108.926 437.357 108.963C437.205 108.994 437.039 108.955 436.86 108.844C436.686 108.744 436.512 108.644 436.338 108.544C436.165 108.444 435.97 108.357 435.754 108.283C435.543 108.21 435.304 108.149 435.035 108.102C434.772 108.054 434.467 108.031 434.119 108.031C433.556 108.031 433.045 108.125 432.587 108.315C432.134 108.505 431.747 108.776 431.426 109.128C431.105 109.481 430.857 109.905 430.684 110.4C430.51 110.895 430.423 111.448 430.423 112.059C430.423 112.711 430.515 113.296 430.699 113.812C430.889 114.323 431.152 114.757 431.489 115.115C431.831 115.468 432.242 115.739 432.721 115.929C433.2 116.113 433.735 116.205 434.324 116.205C434.746 116.205 435.122 116.16 435.454 116.071C435.786 115.981 436.109 115.86 436.425 115.707V113.638H434.988C434.851 113.638 434.743 113.601 434.664 113.528C434.59 113.449 434.553 113.354 434.553 113.243V112.043H438.344Z" fill="white"/>
<path d="M504.97 87.0385V90.2056H508.966V91.8405H504.97V95.0707H510.04V96.7687H502.837V85.3484H510.04V87.0385H504.97Z" fill="white"/>
<path d="M500 91.0428V95.6631C499.421 96.0895 498.803 96.4028 498.144 96.6029C497.492 96.7977 496.791 96.8951 496.044 96.8951C495.112 96.8951 494.267 96.7503 493.508 96.4608C492.755 96.1712 492.11 95.7684 491.573 95.2524C491.042 94.7364 490.631 94.1203 490.341 93.4043C490.052 92.6882 489.907 91.9063 489.907 91.0586C489.907 90.2004 490.047 89.4132 490.326 88.6971C490.605 87.981 491 87.365 491.51 86.849C492.026 86.333 492.65 85.9329 493.382 85.6485C494.114 85.3642 494.935 85.222 495.846 85.222C496.31 85.222 496.741 85.2589 497.141 85.3326C497.547 85.4063 497.921 85.509 498.263 85.6406C498.61 85.767 498.926 85.9223 499.211 86.1066C499.495 86.2909 499.756 86.4936 499.993 86.7147L499.384 87.6783C499.29 87.831 499.166 87.9258 499.013 87.9626C498.861 87.9942 498.695 87.9547 498.516 87.8441C498.342 87.7441 498.168 87.6441 497.994 87.544C497.821 87.444 497.626 87.3571 497.41 87.2834C497.199 87.2097 496.96 87.1491 496.691 87.1017C496.428 87.0544 496.123 87.0307 495.775 87.0307C495.212 87.0307 494.701 87.1254 494.243 87.315C493.79 87.5045 493.403 87.7757 493.082 88.1285C492.761 88.4812 492.513 88.9051 492.34 89.4C492.166 89.895 492.079 90.4478 492.079 91.0586C492.079 91.7115 492.171 92.2959 492.355 92.8119C492.545 93.3227 492.808 93.757 493.145 94.1151C493.487 94.4678 493.898 94.739 494.377 94.9286C494.856 95.1128 495.391 95.205 495.98 95.205C496.402 95.205 496.778 95.1602 497.11 95.0707C497.442 94.9812 497.765 94.8601 498.081 94.7074V92.6382H496.644C496.507 92.6382 496.399 92.6013 496.32 92.5276C496.246 92.4486 496.21 92.3538 496.21 92.2433V91.0428H500Z" fill="white"/>
<path d="M487.921 91.0586C487.921 91.8957 487.781 92.6645 487.502 93.3648C487.223 94.065 486.831 94.6679 486.325 95.1734C485.82 95.6788 485.212 96.0711 484.501 96.3502C483.79 96.6292 483 96.7687 482.132 96.7687H477.78V85.3484H482.132C483 85.3484 483.79 85.4906 484.501 85.7749C485.212 86.0539 485.82 86.4462 486.325 86.9517C486.831 87.4519 487.223 88.0521 487.502 88.7524C487.781 89.4527 487.921 90.2214 487.921 91.0586ZM485.741 91.0586C485.741 90.432 485.657 89.8713 485.488 89.3763C485.325 88.8761 485.085 88.4549 484.769 88.1127C484.459 87.7651 484.08 87.4992 483.632 87.315C483.19 87.1307 482.69 87.0385 482.132 87.0385H479.912V95.0786H482.132C482.69 95.0786 483.19 94.9865 483.632 94.8022C484.08 94.6179 484.459 94.3546 484.769 94.0124C485.085 93.6649 485.325 93.2437 485.488 92.7487C485.657 92.2485 485.741 91.6851 485.741 91.0586Z" fill="white"/>
<path d="M470.037 87.0385V90.2056H474.033V91.8405H470.037V95.0707H475.107V96.7687H467.904V85.3484H475.107V87.0385H470.037Z" fill="white"/>
<path d="M465.598 95.0154V96.7687H458.908V85.3484H461.033V95.0154H465.598Z" fill="white"/>
<path d="M456.716 85.3484L453.17 96.7687H451.251L448.755 88.9656C448.687 88.7761 448.623 88.5444 448.566 88.2706C448.534 88.4022 448.502 88.526 448.471 88.6418C448.439 88.7576 448.405 88.8656 448.368 88.9656L445.849 96.7687H443.922L440.383 85.3484H442.16C442.345 85.3484 442.497 85.3931 442.618 85.4827C442.745 85.5669 442.829 85.6827 442.871 85.8302L444.814 92.6618C444.856 92.8303 444.896 93.0146 444.932 93.2147C444.975 93.4095 445.017 93.6149 445.059 93.8307C445.101 93.6096 445.146 93.4016 445.193 93.2068C445.246 93.012 445.301 92.8303 445.359 92.6618L447.602 85.8302C447.644 85.7091 447.726 85.5985 447.847 85.4984C447.973 85.3984 448.126 85.3484 448.305 85.3484H448.929C449.113 85.3484 449.263 85.3931 449.379 85.4827C449.495 85.5722 449.582 85.688 449.64 85.8302L451.875 92.6618C451.985 92.9883 452.085 93.3648 452.175 93.7912C452.243 93.3753 452.32 92.9988 452.404 92.6618L454.347 85.8302C454.378 85.6985 454.457 85.5853 454.584 85.4906C454.715 85.3958 454.871 85.3484 455.05 85.3484H456.716Z" fill="white"/>
<path d="M439.096 91.0586C439.096 91.8958 438.957 92.6724 438.678 93.3885C438.404 94.0993 438.014 94.7153 437.509 95.2366C437.003 95.7578 436.395 96.1659 435.684 96.4608C434.974 96.7503 434.184 96.8951 433.315 96.8951C432.452 96.8951 431.664 96.7503 430.954 96.4608C430.243 96.1659 429.632 95.7578 429.121 95.2366C428.616 94.7153 428.224 94.0993 427.944 93.3885C427.665 92.6724 427.526 91.8958 427.526 91.0586C427.526 90.2214 427.665 89.4474 427.944 88.7366C428.224 88.0205 428.616 87.4019 429.121 86.8806C429.632 86.3593 430.243 85.9539 430.954 85.6643C431.664 85.3695 432.452 85.222 433.315 85.222C433.894 85.222 434.439 85.2905 434.95 85.4274C435.461 85.559 435.929 85.7486 436.356 85.996C436.782 86.2382 437.164 86.5357 437.501 86.8885C437.843 87.236 438.133 87.6256 438.37 88.0574C438.607 88.4891 438.786 88.9578 438.907 89.4632C439.033 89.9687 439.096 90.5005 439.096 91.0586ZM436.924 91.0586C436.924 90.432 436.84 89.8713 436.672 89.3763C436.503 88.8761 436.264 88.4523 435.953 88.1048C435.642 87.7573 435.263 87.4914 434.816 87.3071C434.373 87.1228 433.873 87.0307 433.315 87.0307C432.757 87.0307 432.254 87.1228 431.807 87.3071C431.364 87.4914 430.985 87.7573 430.669 88.1048C430.359 88.4523 430.119 88.8761 429.951 89.3763C429.782 89.8713 429.698 90.432 429.698 91.0586C429.698 91.6852 429.782 92.2485 429.951 92.7487C430.119 93.2437 430.359 93.6649 430.669 94.0124C430.985 94.3546 431.364 94.6179 431.807 94.8022C432.254 94.9865 432.757 95.0786 433.315 95.0786C433.873 95.0786 434.373 94.9865 434.816 94.8022C435.263 94.6179 435.642 94.3546 435.953 94.0124C436.264 93.6649 436.503 93.2437 436.672 92.7487C436.84 92.2485 436.924 91.6852 436.924 91.0586Z" fill="white"/>
<path d="M424.872 85.3484V96.7687H423.782C423.614 96.7687 423.472 96.7424 423.356 96.6898C423.245 96.6318 423.137 96.5371 423.032 96.4054L417.069 88.7919C417.101 89.1394 417.116 89.4606 417.116 89.7554V96.7687H415.245V85.3484H416.358C416.448 85.3484 416.524 85.3537 416.587 85.3642C416.656 85.3694 416.714 85.3852 416.761 85.4116C416.814 85.4326 416.864 85.4669 416.911 85.5142C416.958 85.5564 417.011 85.6143 417.069 85.688L423.056 93.3332C423.04 93.1489 423.027 92.9672 423.016 92.7882C423.006 92.6092 423 92.4433 423 92.2906V85.3484H424.872Z" fill="white"/>
<path d="M405.751 90.1345H406.248C406.448 90.1345 406.614 90.1082 406.746 90.0555C406.877 89.9976 406.99 89.9081 407.085 89.787L410.237 85.7986C410.368 85.6301 410.505 85.5142 410.647 85.4511C410.795 85.3826 410.979 85.3484 411.2 85.3484H413.032L409.186 90.095C408.96 90.3846 408.725 90.59 408.483 90.7111C408.657 90.7742 408.812 90.8638 408.949 90.9796C409.091 91.0902 409.226 91.2376 409.352 91.4219L413.317 96.7687H411.445C411.192 96.7687 411.003 96.7345 410.876 96.6661C410.755 96.5924 410.652 96.4871 410.568 96.3502L407.338 92.1327C407.238 91.9905 407.122 91.8905 406.99 91.8326C406.859 91.7746 406.669 91.7457 406.422 91.7457H405.751V96.7687H403.626V85.3484H405.751V90.1345Z" fill="white"/>
<path d="M271.424 30.5984C271.424 28.3116 269.571 26.4578 267.284 26.4578C264.997 26.4579 263.143 28.3117 263.143 30.5984C263.143 32.8852 264.997 34.7389 267.284 34.739C269.571 34.739 271.424 32.8853 271.424 30.5984ZM273.795 30.5984C273.795 34.1938 270.879 37.1091 267.284 37.1091C263.688 37.109 260.774 34.1938 260.774 30.5984C260.774 27.0031 263.689 24.0888 267.284 24.0886C270.879 24.0886 273.794 27.0031 273.795 30.5984Z" fill="#00B4FF"/>
<path d="M281.015 47.0931C281.015 45.405 279.646 44.0365 277.958 44.0365C276.27 44.0367 274.902 45.4051 274.902 47.0931C274.902 48.7813 276.27 50.1496 277.958 50.1498C279.646 50.1498 281.015 48.7814 281.015 47.0931ZM283.385 47.0931C283.385 50.0899 280.955 52.5199 277.958 52.5199C274.962 52.5197 272.532 50.0898 272.532 47.0931C272.533 44.0966 274.962 41.6675 277.958 41.6674C280.955 41.6674 283.385 44.0965 283.385 47.0931Z" fill="#00B4FF"/>
<path d="M271.59 62.8103C271.59 60.4324 269.662 58.5046 267.284 58.5046C264.906 58.5047 262.978 60.4325 262.978 62.8103C262.978 65.1882 264.906 67.1159 267.284 67.116C269.662 67.116 271.59 65.1883 271.59 62.8103ZM273.959 62.8103C273.959 66.4968 270.97 69.4851 267.284 69.4851C263.597 69.485 260.609 66.4968 260.609 62.8103C260.609 59.1239 263.598 56.1356 267.284 56.1355C270.97 56.1355 273.959 59.1238 273.959 62.8103Z" fill="#00B4FF"/>
<path d="M254.199 50.9698C254.199 47.9282 251.734 45.4622 248.692 45.462C245.651 45.462 243.185 47.9282 243.185 50.9698C243.185 54.0114 245.651 56.4767 248.692 56.4767C251.734 56.4766 254.199 54.0114 254.199 50.9698ZM256.569 50.9698C256.569 55.3199 253.042 58.8467 248.692 58.8468C244.342 58.8468 240.816 55.32 240.815 50.9698C240.815 46.6196 244.342 43.0929 248.692 43.0929C253.043 43.093 256.569 46.6197 256.569 50.9698Z" fill="#00B4FF"/>
<path d="M263.832 34.4753C264.268 33.9875 265.017 33.9449 265.505 34.3805C265.993 34.8164 266.035 35.5655 265.599 36.0534L255.031 47.8825C254.595 48.3703 253.846 48.4128 253.358 47.9772C252.87 47.5414 252.828 46.7923 253.263 46.3044L263.832 34.4753Z" fill="#00B4FF"/>
<path d="M268.818 34.4741C269.339 34.0783 270.082 34.1797 270.478 34.7007L276.628 42.7954C277.024 43.3162 276.922 44.0588 276.402 44.4546C275.881 44.8504 275.137 44.749 274.741 44.228L268.591 36.1343C268.195 35.6133 268.297 34.87 268.818 34.4741Z" fill="#00B4FF"/>
<path d="M253.834 53.0155C254.208 52.4782 254.945 52.3453 255.483 52.7186L263.671 58.409C264.208 58.7824 264.341 59.5211 263.968 60.0584C263.595 60.5954 262.857 60.7276 262.32 60.3543L254.131 54.6639C253.594 54.2905 253.461 53.5527 253.834 53.0155Z" fill="#00B4FF"/>
<path d="M467.425 48.5732C467.424 45.2137 464.701 42.4902 461.342 42.4902C457.982 42.4903 455.259 45.2138 455.259 48.5732C455.259 51.9328 457.982 54.6562 461.342 54.6562C464.701 54.6562 467.425 51.9328 467.425 48.5732ZM469.794 48.5732C469.794 53.2414 466.01 57.0254 461.342 57.0254C456.673 57.0253 452.889 53.2413 452.889 48.5732C452.889 43.9052 456.674 40.1212 461.342 40.1211C466.01 40.1211 469.794 43.9052 469.794 48.5732Z" fill="#E27C45"/>
<path d="M444.006 41.353C444.006 39.4596 442.471 37.9244 440.577 37.9243C438.684 37.9243 437.148 39.4596 437.148 41.353C437.149 43.2464 438.684 44.7817 440.577 44.7817C442.47 44.7817 444.006 43.2464 444.006 41.353ZM446.375 41.353C446.375 44.5549 443.779 47.1508 440.577 47.1509C437.375 47.1509 434.779 44.555 434.779 41.353C434.779 38.151 437.375 35.5552 440.577 35.5552C443.779 35.5553 446.375 38.151 446.375 41.353Z" fill="#E27C45"/>
<path d="M444.006 62.519C444.006 60.6256 442.471 59.0904 440.577 59.0903C438.684 59.0903 437.148 60.6256 437.148 62.519C437.149 64.4124 438.684 65.9478 440.577 65.9478C442.47 65.9477 444.006 64.4124 444.006 62.519ZM446.375 62.519C446.375 65.721 443.779 68.3168 440.577 68.3169C437.375 68.3169 434.779 65.721 434.779 62.519C434.779 59.317 437.375 56.7212 440.577 56.7212C443.779 56.7213 446.375 59.3171 446.375 62.519Z" fill="#E27C45"/>
<path d="M475.92 62.519C475.92 60.6256 474.385 59.0904 472.491 59.0903C470.598 59.0903 469.063 60.6256 469.063 62.519C469.063 64.4124 470.598 65.9478 472.491 65.9478C474.385 65.9477 475.92 64.4124 475.92 62.519ZM478.289 62.519C478.289 65.721 475.693 68.3168 472.491 68.3169C469.289 68.3169 466.694 65.721 466.694 62.519C466.694 59.317 469.289 56.7212 472.491 56.7212C475.693 56.7213 478.289 59.3171 478.289 62.519Z" fill="#E27C45"/>
<path d="M474.552 31.4661C474.552 29.5726 473.016 28.0374 471.123 28.0374C469.229 28.0374 467.694 29.5726 467.694 31.4661C467.694 33.3595 469.229 34.8948 471.123 34.8948C473.016 34.8947 474.551 33.3594 474.552 31.4661ZM476.921 31.4661C476.921 34.668 474.325 37.2638 471.123 37.2639C467.921 37.2639 465.325 34.668 465.325 31.4661C465.325 28.264 467.921 25.6682 471.123 25.6682C474.325 25.6683 476.921 28.2641 476.921 31.4661Z" fill="#E27C45"/>
<path d="M444.074 41.8925C444.31 41.2825 444.996 40.9795 445.606 41.2158L454.986 44.8496C455.596 45.0859 455.899 45.7718 455.663 46.3818C455.426 46.9919 454.739 47.2949 454.129 47.0585L444.75 43.4248C444.14 43.1884 443.837 42.5026 444.074 41.8925Z" fill="#E27C45"/>
<path d="M467.211 34.36C467.574 33.8156 468.31 33.6689 468.854 34.0319C469.398 34.3949 469.545 35.1302 469.182 35.6745L464.722 42.3639C464.36 42.9082 463.624 43.0558 463.08 42.693C462.535 42.3301 462.389 41.5938 462.752 41.0495L467.211 34.36Z" fill="#E27C45"/>
<path d="M465.82 52.7181C466.352 52.3375 467.093 52.4604 467.473 52.9925L471.001 57.9242C471.381 58.4563 471.258 59.1969 470.726 59.5775C470.194 59.9579 469.455 59.8349 469.074 59.3031L465.546 54.3715C465.165 53.8393 465.288 53.0988 465.82 52.7181Z" fill="#E27C45"/>
<path d="M454.704 51.6851C455.253 51.3293 455.986 51.4858 456.342 52.0347C456.698 52.5837 456.542 53.3175 455.993 53.6734L444.961 60.8228C444.412 61.1786 443.679 61.0222 443.323 60.4732C442.967 59.9241 443.123 59.1903 443.672 58.8345L454.704 51.6851Z" fill="#E27C45"/>
<path d="M193.893 235.752V215.217C193.893 209.858 191.235 206.434 187.811 204.249C184.332 202.028 180.099 201.13 177.272 201.001H85.2974C78.796 201.001 74.4941 197.59 71.8364 193.465C69.2174 189.401 68.1355 184.582 67.9253 181.36L67.9224 181.308V167.041C67.9224 166.168 68.6291 165.461 69.5015 165.461C70.3738 165.461 71.0806 166.168 71.0806 167.041V181.19C71.2712 184.023 72.2435 188.265 74.4917 191.754C76.711 195.199 80.1099 197.842 85.2974 197.842H177.342L177.376 197.844C180.605 197.985 185.435 198.984 189.511 201.585C193.655 204.231 197.052 208.573 197.052 215.217V235.752C197.052 236.625 196.345 237.331 195.473 237.332C194.601 237.332 193.893 236.625 193.893 235.752Z" fill="#00BFE3"/>
<path d="M195.945 234.428C196.534 235.071 196.49 236.07 195.847 236.659C195.204 237.249 194.205 237.205 193.616 236.562L187.062 229.413C186.473 228.77 186.517 227.772 187.159 227.182C187.802 226.593 188.802 226.636 189.391 227.279L195.945 234.428Z" fill="#00BFE3"/>
<path d="M195.001 234.428C194.412 235.071 194.456 236.07 195.099 236.659C195.742 237.249 196.741 237.205 197.33 236.562L203.883 229.413C204.472 228.77 204.429 227.772 203.786 227.182C203.143 226.593 202.144 226.636 201.555 227.279L195.001 234.428Z" fill="#00BFE3"/>
<path d="M333.686 235.752V215.217C333.686 209.858 336.344 206.434 339.768 204.249C343.248 202.028 347.481 201.13 350.307 201.001H442.282C448.783 201.001 453.085 197.59 455.743 193.465C458.362 189.401 459.444 184.582 459.654 181.36L459.657 181.308V167.041C459.657 166.168 458.95 165.461 458.078 165.461C457.206 165.461 456.499 166.168 456.499 167.041V181.19C456.308 184.023 455.336 188.265 453.088 191.754C450.868 195.199 447.469 197.842 442.282 197.842H350.237L350.203 197.844C346.975 197.985 342.144 198.984 338.068 201.585C333.924 204.231 330.527 208.573 330.527 215.217V235.752C330.527 236.625 331.234 237.331 332.106 237.332C332.979 237.332 333.686 236.625 333.686 235.752Z" fill="#E27C45"/>
<path d="M331.635 234.428C331.045 235.071 331.089 236.07 331.732 236.659C332.376 237.249 333.374 237.205 333.964 236.562L340.517 229.413C341.106 228.77 341.063 227.772 340.42 227.182C339.777 226.593 338.778 226.636 338.188 227.279L331.635 234.428Z" fill="#E27C45"/>
<path d="M332.578 234.428C333.168 235.071 333.124 236.07 332.481 236.659C331.838 237.249 330.839 237.205 330.25 236.562L323.696 229.413C323.107 228.77 323.151 227.772 323.793 227.182C324.436 226.593 325.436 226.636 326.025 227.279L332.578 234.428Z" fill="#E27C45"/>
<path d="M264.057 235.357C264.057 236.229 263.349 236.937 262.477 236.937C261.605 236.937 260.898 236.229 260.898 235.357L260.898 157.958C260.898 157.086 261.605 156.379 262.477 156.378C263.349 156.378 264.057 157.085 264.057 157.958L264.057 235.357Z" fill="#004CAD"/>
<path d="M262.949 233.638C263.539 234.281 263.494 235.28 262.851 235.87C262.208 236.459 261.21 236.415 260.62 235.773L254.067 228.623C253.478 227.981 253.521 226.982 254.164 226.392C254.807 225.803 255.806 225.846 256.396 226.489L262.949 233.638Z" fill="#004CAD"/>
<path d="M262.006 233.638C261.416 234.281 261.46 235.28 262.103 235.87C262.747 236.459 263.745 236.415 264.335 235.773L270.888 228.623C271.477 227.981 271.433 226.982 270.791 226.392C270.148 225.803 269.149 225.846 268.559 226.489L262.006 233.638Z" fill="#004CAD"/>
<path d="M263.662 584.33C263.662 585.202 262.954 585.91 262.082 585.91C261.21 585.91 260.503 585.202 260.503 584.33L260.503 549.579C260.503 548.707 261.21 548 262.082 548C262.954 548 263.662 548.707 263.662 549.579L263.662 584.33Z" fill="#A900FA"/>
<path d="M262.949 582.611C263.539 583.254 263.494 584.253 262.851 584.842C262.208 585.432 261.21 585.388 260.62 584.745L254.067 577.596C253.478 576.953 253.521 575.955 254.164 575.365C254.807 574.776 255.806 574.819 256.396 575.462L262.949 582.611Z" fill="#A900FA"/>
<path d="M261.611 582.611C261.021 583.254 261.065 584.253 261.709 584.842C262.352 585.432 263.35 585.388 263.94 584.745L270.493 577.596C271.082 576.953 271.039 575.955 270.396 575.365C269.753 574.776 268.754 574.819 268.164 575.462L261.611 582.611Z" fill="#A900FA"/>
<defs>
<linearGradient id="paint0_linear_34010_492" x1="227.698" y1="363.503" x2="297.048" y2="429.179" gradientUnits="userSpaceOnUse">
<stop stop-color="#4E00F7"/>
<stop offset="1" stop-color="#AE00FE"/>
</linearGradient>
<linearGradient id="paint1_linear_34010_492" x1="262.107" y1="0" x2="262.107" y2="138.213" gradientUnits="userSpaceOnUse">
<stop stop-color="#004CAD" stop-opacity="0.5"/>
<stop offset="1" stop-color="#004CAD" stop-opacity="0"/>
</linearGradient>
<linearGradient id="paint2_linear_34010_492" x1="456.893" y1="0" x2="456.893" y2="138.213" gradientUnits="userSpaceOnUse">
<stop stop-color="#E27C45" stop-opacity="0.5"/>
<stop offset="1" stop-color="#E27C45" stop-opacity="0"/>
</linearGradient>
<linearGradient id="paint3_linear_34010_492" x1="69.1066" y1="0" x2="69.1066" y2="138.213" gradientUnits="userSpaceOnUse">
<stop stop-color="#007AA7" stop-opacity="0.5"/>
<stop offset="1" stop-color="#007AA7" stop-opacity="0"/>
</linearGradient>
<linearGradient id="paint4_linear_34010_492" x1="69.1066" y1="599" x2="69.1066" y2="681.138" gradientUnits="userSpaceOnUse">
<stop stop-color="#5900A3" stop-opacity="0.5"/>
<stop offset="1" stop-color="#5900A3" stop-opacity="0"/>
</linearGradient>
<linearGradient id="paint5_linear_34010_492" x1="262.107" y1="599" x2="262.107" y2="681.138" gradientUnits="userSpaceOnUse">
<stop stop-color="#007AA7" stop-opacity="0.5"/>
<stop offset="1" stop-color="#007AA7" stop-opacity="0"/>
</linearGradient>
<linearGradient id="paint6_linear_34010_492" x1="456.893" y1="599" x2="456.893" y2="681.138" gradientUnits="userSpaceOnUse">
<stop stop-color="#004CAD" stop-opacity="0.5"/>
<stop offset="1" stop-color="#004CAD" stop-opacity="0"/>
</linearGradient>
</defs>
</svg>
